<svg xmlns="http://www.w3.org/2000/svg" width="16" height="22" viewBox="0 0 16 22">
  <defs>
    <style>
      .cls-1 {
        fill: #fd674a;
      }
    </style>
  </defs>
  <path id="联合_1" data-name="联合 1" class="cls-1" d="M2.183,22A2.125,2.125,0,0,1,0,19.936V2.063A2.125,2.125,0,0,1,2.183,0H13.819A2.125,2.125,0,0,1,16,2.063V19.936A2.125,2.125,0,0,1,13.819,22ZM1.454,2.063V19.936a.672.672,0,0,0,.213.488.754.754,0,0,0,.515.2H13.819a.753.753,0,0,0,.514-.2.67.67,0,0,0,.214-.488L14.539,2.062a.674.674,0,0,0-.212-.486.754.754,0,0,0-.514-.2H11.629a1.332,1.332,0,0,1-1.36,1.258H5.724A1.333,1.333,0,0,1,4.363,1.375H2.183A.709.709,0,0,0,1.454,2.063Zm4.4,17.008a.7.7,0,1,1,0-1.4h4.3a.7.7,0,1,1,0,1.4Z"/>
</svg>
