<svg xmlns="http://www.w3.org/2000/svg" width="12" height="14.592" viewBox="0 0 12 14.592">
  <defs>
    <style>
      .cls-1 {
        fill: #fe694c;
      }
    </style>
  </defs>
  <g id="组_90" data-name="组 90" transform="translate(-10 -198)">
    <path id="预定" d="M158.026,62.048h-2.4a.57.57,0,0,0-.6-.608h-4.8a.571.571,0,0,0-.6.608h-2.4a.571.571,0,0,0-.6.608V75.424a.57.57,0,0,0,.6.608h10.8a.57.57,0,0,0,.6-.608V62.656a.57.57,0,0,0-.6-.608Zm-7.2.608h3.6v1.216h-3.6Zm6.6,12.16h-9.6V63.264h1.8V64.48a.57.57,0,0,0,.6.608h4.8a.571.571,0,0,0,.6-.608V63.264h1.8Z" transform="translate(-136.627 136.56)"/>
    <path id="路径_44" data-name="路径 44" class="cls-1" d="M1422.22,1102.485l-.816.948,2.871,2.769,4.65-4.65-.92-.92-3.8,3.664Z" transform="translate(-1409.121 -897.601)"/>
  </g>
</svg>
